<svg xmlns="http://www.w3.org/2000/svg" width="1000" height="288" viewBox="0 0 1000 288" role="img" aria-label="Rendering culling design"><rect width="1000" height="288" fill="#0D1117"/><style>.m{font-family:ui-monospace, SFMono-Regular, Menlo, Monaco, Consolas, Liberation Mono, monospace}</style><rect x="1" y="1" width="998" height="286" rx="7" fill="#0F141B" stroke="#30363D"/><text x="26" y="34" class="m" fill="#8B949E" font-size="13" font-weight="700">03 / RENDER ONLY WHAT MATTERS</text><line x1="25" y1="54" x2="975" y2="54" stroke="#30363D"/><text x="405" y="121" class="m" fill="#E6EDF3" font-size="14">visibility test</text><text x="500" y="121" class="m" fill="#FF7A1A" font-size="18">→</text><text x="545" y="121" class="m" fill="#E6EDF3" font-size="14">jobified transform work</text><text x="754" y="121" class="m" fill="#FF7A1A" font-size="18">→</text><text x="800" y="121" class="m" fill="#E6EDF3" font-size="14">instanced draw</text><line x1="405" y1="147" x2="940" y2="147" stroke="#30363D"/><text x="405" y="182" class="m" fill="#8B949E" font-size="13">The optimization is not “draw everything faster.”</text><text x="405" y="210" class="m" fill="#E6EDF3" font-size="14">Avoid submitting work for objects that are not visible.</text><text x="405" y="247" class="m" fill="#FF7A1A" font-size="12">DrawMeshInstanced + custom culling + Jobs/Burst-compatible work</text><rect x="45" y="105" width="18" height="18" rx="2" fill="#3A424C" opacity="0.65"/><rect x="87" y="105" width="18" height="18" rx="2" fill="#3A424C" opacity="0.65"/><rect x="129" y="105" width="18" height="18" rx="2" fill="#FF7A1A" opacity="1"/><rect x="171" y="105" width="18" height="18" rx="2" fill="#FF7A1A" opacity="1"/><rect x="213" y="105" width="18" height="18" rx="2" fill="#FF7A1A" opacity="1"/><rect x="255" y="105" width="18" height="18" rx="2" fill="#FF7A1A" opacity="1"/><rect x="297" y="105" width="18" height="18" rx="2" fill="#3A424C" opacity="0.65"/><rect x="339" y="105" width="18" height="18" rx="2" fill="#3A424C" opacity="0.65"/><rect x="45" y="140" width="18" height="18" rx="2" fill="#3A424C" opacity="0.65"/><rect x="87" y="140" width="18" height="18" rx="2" fill="#3A424C" opacity="0.65"/><rect x="129" y="140" width="18" height="18" rx="2" fill="#FF7A1A" opacity="1"/><rect x="171" y="140" width="18" height="18" rx="2" fill="#FF7A1A" opacity="1"/><rect x="213" y="140" width="18" height="18" rx="2" fill="#FF7A1A" opacity="1"/><rect x="255" y="140" width="18" height="18" rx="2" fill="#FF7A1A" opacity="1"/><rect x="297" y="140" width="18" height="18" rx="2" fill="#3A424C" opacity="0.65"/><rect x="339" y="140" width="18" height="18" rx="2" fill="#3A424C" opacity="0.65"/><rect x="45" y="175" width="18" height="18" rx="2" fill="#3A424C" opacity="0.65"/><rect x="87" y="175" width="18" height="18" rx="2" fill="#3A424C" opacity="0.65"/><rect x="129" y="175" width="18" height="18" rx="2" fill="#FF7A1A" opacity="1"/><rect x="171" y="175" width="18" height="18" rx="2" fill="#FF7A1A" opacity="1"/><rect x="213" y="175" width="18" height="18" rx="2" fill="#FF7A1A" opacity="1"/><rect x="255" y="175" width="18" height="18" rx="2" fill="#FF7A1A" opacity="1"/><rect x="297" y="175" width="18" height="18" rx="2" fill="#3A424C" opacity="0.65"/><rect x="339" y="175" width="18" height="18" rx="2" fill="#3A424C" opacity="0.65"/><rect x="45" y="210" width="18" height="18" rx="2" fill="#3A424C" opacity="0.65"/><rect x="87" y="210" width="18" height="18" rx="2" fill="#3A424C" opacity="0.65"/><rect x="129" y="210" width="18" height="18" rx="2" fill="#3A424C" opacity="0.65"/><rect x="171" y="210" width="18" height="18" rx="2" fill="#3A424C" opacity="0.65"/><rect x="213" y="210" width="18" height="18" rx="2" fill="#3A424C" opacity="0.65"/><rect x="255" y="210" width="18" height="18" rx="2" fill="#3A424C" opacity="0.65"/><rect x="297" y="210" width="18" height="18" rx="2" fill="#3A424C" opacity="0.65"/><rect x="339" y="210" width="18" height="18" rx="2" fill="#3A424C" opacity="0.65"/></svg>