<svg xmlns="http://www.w3.org/2000/svg" width="480" height="402" viewBox="0 0 480 402" role="img" aria-labelledby="title desc">
<title id="title">Instanced rendering — visibility and work</title><desc id="desc">Conceptual frustum illustration. The project combines custom culling, jobified transform updates and instanced drawing. No performance measurements are shown.</desc>
<rect x="0.5" y="0.5" width="479" height="401" rx="5" fill="#0d1117" stroke="#303b47"/><text x="22" y="30" fill="#9aa8b7" font-size="13" font-weight="400" font-family="'DejaVu Sans Mono',Consolas,monospace">03 / DRAW SUBMISSION</text><text x="458" y="30" fill="#e6edf3" font-size="13" font-weight="400" font-family="'DejaVu Sans Mono',Consolas,monospace"></text><line x1="22" y1="46" x2="458" y2="46" stroke="#303b47" stroke-width="1"/><rect x="108" y="66" width="136" height="133" rx="0" fill="#151d26" stroke="#e38b5b"/><rect x="34" y="80" width="13" height="13" rx="0" fill="#24303d" stroke="#364354"/><rect x="65" y="80" width="13" height="13" rx="0" fill="#24303d" stroke="#364354"/><rect x="96" y="80" width="13" height="13" rx="0" fill="#24303d" stroke="#364354"/><rect x="127" y="80" width="13" height="13" rx="0" fill="#e6edf3" stroke="#e6edf3"/><rect x="158" y="80" width="13" height="13" rx="0" fill="#e6edf3" stroke="#e6edf3"/><rect x="189" y="80" width="13" height="13" rx="0" fill="#e6edf3" stroke="#e6edf3"/><rect x="220" y="80" width="13" height="13" rx="0" fill="#e6edf3" stroke="#e6edf3"/><rect x="251" y="80" width="13" height="13" rx="0" fill="#24303d" stroke="#364354"/><rect x="282" y="80" width="13" height="13" rx="0" fill="#24303d" stroke="#364354"/><rect x="34" y="110" width="13" height="13" rx="0" fill="#24303d" stroke="#364354"/><rect x="65" y="110" width="13" height="13" rx="0" fill="#24303d" stroke="#364354"/><rect x="96" y="110" width="13" height="13" rx="0" fill="#24303d" stroke="#364354"/><rect x="127" y="110" width="13" height="13" rx="0" fill="#e6edf3" stroke="#e6edf3"/><rect x="158" y="110" width="13" height="13" rx="0" fill="#e6edf3" stroke="#e6edf3"/><rect x="189" y="110" width="13" height="13" rx="0" fill="#e6edf3" stroke="#e6edf3"/><rect x="220" y="110" width="13" height="13" rx="0" fill="#e6edf3" stroke="#e6edf3"/><rect x="251" y="110" width="13" height="13" rx="0" fill="#24303d" stroke="#364354"/><rect x="282" y="110" width="13" height="13" rx="0" fill="#24303d" stroke="#364354"/><rect x="34" y="140" width="13" height="13" rx="0" fill="#24303d" stroke="#364354"/><rect x="65" y="140" width="13" height="13" rx="0" fill="#24303d" stroke="#364354"/><rect x="96" y="140" width="13" height="13" rx="0" fill="#24303d" stroke="#364354"/><rect x="127" y="140" width="13" height="13" rx="0" fill="#e6edf3" stroke="#e6edf3"/><rect x="158" y="140" width="13" height="13" rx="0" fill="#e6edf3" stroke="#e6edf3"/><rect x="189" y="140" width="13" height="13" rx="0" fill="#e6edf3" stroke="#e6edf3"/><rect x="220" y="140" width="13" height="13" rx="0" fill="#e6edf3" stroke="#e6edf3"/><rect x="251" y="140" width="13" height="13" rx="0" fill="#24303d" stroke="#364354"/><rect x="282" y="140" width="13" height="13" rx="0" fill="#24303d" stroke="#364354"/><rect x="34" y="170" width="13" height="13" rx="0" fill="#24303d" stroke="#364354"/><rect x="65" y="170" width="13" height="13" rx="0" fill="#24303d" stroke="#364354"/><rect x="96" y="170" width="13" height="13" rx="0" fill="#24303d" stroke="#364354"/><rect x="127" y="170" width="13" height="13" rx="0" fill="#e6edf3" stroke="#e6edf3"/><rect x="158" y="170" width="13" height="13" rx="0" fill="#e6edf3" stroke="#e6edf3"/><rect x="189" y="170" width="13" height="13" rx="0" fill="#e6edf3" stroke="#e6edf3"/><rect x="220" y="170" width="13" height="13" rx="0" fill="#e6edf3" stroke="#e6edf3"/><rect x="251" y="170" width="13" height="13" rx="0" fill="#24303d" stroke="#364354"/><rect x="282" y="170" width="13" height="13" rx="0" fill="#24303d" stroke="#364354"/><text x="34" y="229" fill="#9aa8b7" font-size="13" font-weight="400" font-family="-apple-system,BlinkMacSystemFont,'Segoe UI',Arial,sans-serif">Frustum illustration · not a benchmark</text><line x1="22" y1="251" x2="458" y2="251" stroke="#303b47" stroke-width="1"/><text x="24" y="283" fill="#e38b5b" font-size="17" font-weight="400" font-family="'DejaVu Sans Mono',Consolas,monospace">Custom culling</text><text x="24" y="314" fill="#e6edf3" font-size="17" font-weight="400" font-family="'DejaVu Sans Mono',Consolas,monospace">Jobified transform updates</text><text x="24" y="345" fill="#e6edf3" font-size="17" font-weight="400" font-family="'DejaVu Sans Mono',Consolas,monospace">DrawMeshInstanced</text><text x="24" y="376" fill="#9aa8b7" font-size="17" font-weight="400" font-family="'DejaVu Sans Mono',Consolas,monospace">Per-instance material properties</text>
</svg>