<svg xmlns="http://www.w3.org/2000/svg" width="960" height="252" viewBox="0 0 960 252" role="img" aria-labelledby="title desc">
<title id="title">A topology change triggers a new route request</title><desc id="desc">Left: conceptual connectivity states, not screenshots. Right: excerpt from PlayerController.TopologyChangedCallback.</desc>
<rect x="0.5" y="0.5" width="959" height="251" rx="5" fill="#0d1117" stroke="#303b47"/><text x="22" y="30" fill="#9aa8b7" font-size="13" font-weight="400" font-family="'DejaVu Sans Mono',Consolas,monospace">01 / TOPOLOGY CHANGES</text><text x="938" y="30" fill="#e6edf3" font-size="13" font-weight="400" font-family="'DejaVu Sans Mono',Consolas,monospace"></text><line x1="22" y1="46" x2="938" y2="46" stroke="#303b47" stroke-width="1"/><line x1="36" y1="113" x2="74" y2="87" stroke="#576575" stroke-width="1.6"/><line x1="36" y1="113" x2="74" y2="139" stroke="#576575" stroke-width="1.6"/><line x1="74" y1="87" x2="119" y2="113" stroke="#576575" stroke-width="1.6"/><line x1="74" y1="139" x2="119" y2="113" stroke="#576575" stroke-width="1.6"/><line x1="119" y1="113" x2="164" y2="113" stroke="#576575" stroke-width="1.6"/><line x1="164" y1="113" x2="202" y2="87" stroke="#576575" stroke-width="1.6"/><line x1="164" y1="113" x2="202" y2="139" stroke="#576575" stroke-width="1.6"/><line x1="36" y1="113" x2="74" y2="87" stroke="#e38b5b" stroke-width="2.6"/><line x1="74" y1="87" x2="119" y2="113" stroke="#e38b5b" stroke-width="2.6"/><line x1="119" y1="113" x2="164" y2="113" stroke="#e38b5b" stroke-width="2.6"/><line x1="164" y1="113" x2="202" y2="139" stroke="#e38b5b" stroke-width="2.6"/><circle cx="36" cy="113" r="4.5" fill="#e38b5b"/><circle cx="74" cy="87" r="4.5" fill="#e38b5b"/><circle cx="74" cy="139" r="4.5" fill="#e6edf3"/><circle cx="119" cy="113" r="4.5" fill="#e38b5b"/><circle cx="164" cy="113" r="4.5" fill="#e38b5b"/><circle cx="202" cy="87" r="4.5" fill="#e6edf3"/><circle cx="202" cy="139" r="4.5" fill="#e38b5b"/><line x1="274" y1="113" x2="312" y2="87" stroke="#576575" stroke-width="1.6"/><line x1="274" y1="113" x2="312" y2="139" stroke="#576575" stroke-width="1.6"/><line x1="312" y1="87" x2="357" y2="113" stroke="#576575" stroke-width="1.6"/><line x1="312" y1="139" x2="357" y2="113" stroke="#576575" stroke-width="1.6"/><line x1="357" y1="113" x2="402" y2="113" stroke="#576575" stroke-width="1.6"/><line x1="402" y1="113" x2="440" y2="87" stroke="#576575" stroke-width="1.6"/><line x1="402" y1="113" x2="440" y2="139" stroke="#576575" stroke-width="1.6"/><line x1="274" y1="113" x2="312" y2="87" stroke="#576575" stroke-width="2.6"/><line x1="312" y1="87" x2="357" y2="113" stroke="#576575" stroke-width="2.6"/><line x1="402" y1="113" x2="440" y2="139" stroke="#576575" stroke-width="2.6"/><line x1="365" y1="103" x2="388" y2="123" stroke="#e38b5b" stroke-width="2.5"/><line x1="365" y1="123" x2="388" y2="103" stroke="#e38b5b" stroke-width="2.5"/><circle cx="274" cy="113" r="4.5" fill="#e6edf3"/><circle cx="312" cy="87" r="4.5" fill="#e6edf3"/><circle cx="312" cy="139" r="4.5" fill="#e6edf3"/><circle cx="357" cy="113" r="4.5" fill="#e6edf3"/><circle cx="402" cy="113" r="4.5" fill="#e6edf3"/><circle cx="440" cy="87" r="4.5" fill="#e6edf3"/><circle cx="440" cy="139" r="4.5" fill="#e6edf3"/><text x="36" y="173" fill="#e6edf3" font-size="15" font-weight="400" font-family="'DejaVu Sans Mono',Consolas,monospace">route found</text><text x="274" y="173" fill="#e38b5b" font-size="15" font-weight="400" font-family="'DejaVu Sans Mono',Consolas,monospace">no route</text><text x="36" y="217" fill="#9aa8b7" font-size="16" font-weight="400" font-family="'DejaVu Sans Mono',Consolas,monospace">Keep the destination. Replan on change.</text><line x1="492" y1="63" x2="492" y2="224" stroke="#303b47" stroke-width="1"/><text x="520" y="89" fill="#e6edf3" font-size="15" font-weight="400" font-family="'DejaVu Sans Mono',Consolas,monospace">TopologyChangedCallback()</text><text x="520" y="112" fill="#9aa8b7" font-size="15" font-weight="400" font-family="'DejaVu Sans Mono',Consolas,monospace">{</text><text x="520" y="135" fill="#e6edf3" font-size="15" font-weight="400" font-family="'DejaVu Sans Mono',Consolas,monospace">    if (destinationNode == null)</text><text x="520" y="158" fill="#9aa8b7" font-size="15" font-weight="400" font-family="'DejaVu Sans Mono',Consolas,monospace">        return;</text><text x="520" y="181" fill="#e38b5b" font-size="15" font-weight="400" font-family="'DejaVu Sans Mono',Consolas,monospace">    RequestRoute();</text><text x="520" y="204" fill="#9aa8b7" font-size="15" font-weight="400" font-family="'DejaVu Sans Mono',Consolas,monospace">}</text>
</svg>