<svg xmlns="http://www.w3.org/2000/svg" width="480" height="410" viewBox="0 0 480 410" role="img" aria-labelledby="title desc">
<title id="title">A topology change triggers a new route request</title><desc id="desc">Left: conceptual connectivity states, not screenshots. Right: excerpt from PlayerController.TopologyChangedCallback.</desc>
<rect x="0.5" y="0.5" width="479" height="409" rx="5" fill="#0d1117" stroke="#303b47"/><text x="22" y="30" fill="#9aa8b7" font-size="13" font-weight="400" font-family="'DejaVu Sans Mono',Consolas,monospace">01 / TOPOLOGY CHANGES</text><text x="458" y="30" fill="#e6edf3" font-size="13" font-weight="400" font-family="'DejaVu Sans Mono',Consolas,monospace"></text><line x1="22" y1="46" x2="458" y2="46" stroke="#303b47" stroke-width="1"/><line x1="42" y1="108" x2="80" y2="82" stroke="#576575" stroke-width="1.6"/><line x1="42" y1="108" x2="80" y2="134" stroke="#576575" stroke-width="1.6"/><line x1="80" y1="82" x2="125" y2="108" stroke="#576575" stroke-width="1.6"/><line x1="80" y1="134" x2="125" y2="108" stroke="#576575" stroke-width="1.6"/><line x1="125" y1="108" x2="170" y2="108" stroke="#576575" stroke-width="1.6"/><line x1="170" y1="108" x2="208" y2="82" stroke="#576575" stroke-width="1.6"/><line x1="170" y1="108" x2="208" y2="134" stroke="#576575" stroke-width="1.6"/><line x1="42" y1="108" x2="80" y2="82" stroke="#e38b5b" stroke-width="2.6"/><line x1="80" y1="82" x2="125" y2="108" stroke="#e38b5b" stroke-width="2.6"/><line x1="125" y1="108" x2="170" y2="108" stroke="#e38b5b" stroke-width="2.6"/><line x1="170" y1="108" x2="208" y2="134" stroke="#e38b5b" stroke-width="2.6"/><circle cx="42" cy="108" r="4.5" fill="#e38b5b"/><circle cx="80" cy="82" r="4.5" fill="#e38b5b"/><circle cx="80" cy="134" r="4.5" fill="#e6edf3"/><circle cx="125" cy="108" r="4.5" fill="#e38b5b"/><circle cx="170" cy="108" r="4.5" fill="#e38b5b"/><circle cx="208" cy="82" r="4.5" fill="#e6edf3"/><circle cx="208" cy="134" r="4.5" fill="#e38b5b"/><line x1="270" y1="108" x2="308" y2="82" stroke="#576575" stroke-width="1.6"/><line x1="270" y1="108" x2="308" y2="134" stroke="#576575" stroke-width="1.6"/><line x1="308" y1="82" x2="353" y2="108" stroke="#576575" stroke-width="1.6"/><line x1="308" y1="134" x2="353" y2="108" stroke="#576575" stroke-width="1.6"/><line x1="353" y1="108" x2="398" y2="108" stroke="#576575" stroke-width="1.6"/><line x1="398" y1="108" x2="436" y2="82" stroke="#576575" stroke-width="1.6"/><line x1="398" y1="108" x2="436" y2="134" stroke="#576575" stroke-width="1.6"/><line x1="270" y1="108" x2="308" y2="82" stroke="#576575" stroke-width="2.6"/><line x1="308" y1="82" x2="353" y2="108" stroke="#576575" stroke-width="2.6"/><line x1="398" y1="108" x2="436" y2="134" stroke="#576575" stroke-width="2.6"/><line x1="361" y1="98" x2="384" y2="118" stroke="#e38b5b" stroke-width="2.5"/><line x1="361" y1="118" x2="384" y2="98" stroke="#e38b5b" stroke-width="2.5"/><circle cx="270" cy="108" r="4.5" fill="#e6edf3"/><circle cx="308" cy="82" r="4.5" fill="#e6edf3"/><circle cx="308" cy="134" r="4.5" fill="#e6edf3"/><circle cx="353" cy="108" r="4.5" fill="#e6edf3"/><circle cx="398" cy="108" r="4.5" fill="#e6edf3"/><circle cx="436" cy="82" r="4.5" fill="#e6edf3"/><circle cx="436" cy="134" r="4.5" fill="#e6edf3"/><text x="42" y="172" fill="#e6edf3" font-size="14" font-weight="400" font-family="'DejaVu Sans Mono',Consolas,monospace">route found</text><text x="269" y="172" fill="#e38b5b" font-size="14" font-weight="400" font-family="'DejaVu Sans Mono',Consolas,monospace">no route</text><line x1="22" y1="194" x2="458" y2="194" stroke="#303b47" stroke-width="1"/><text x="24" y="231" fill="#e6edf3" font-size="17" font-weight="400" font-family="'DejaVu Sans Mono',Consolas,monospace">TopologyChangedCallback()</text><text x="24" y="254" fill="#9aa8b7" font-size="17" font-weight="400" font-family="'DejaVu Sans Mono',Consolas,monospace">{</text><text x="24" y="277" fill="#e6edf3" font-size="17" font-weight="400" font-family="'DejaVu Sans Mono',Consolas,monospace">    if (destinationNode == null)</text><text x="24" y="300" fill="#9aa8b7" font-size="17" font-weight="400" font-family="'DejaVu Sans Mono',Consolas,monospace">        return;</text><text x="24" y="323" fill="#e38b5b" font-size="17" font-weight="400" font-family="'DejaVu Sans Mono',Consolas,monospace">    RequestRoute();</text><text x="24" y="346" fill="#9aa8b7" font-size="17" font-weight="400" font-family="'DejaVu Sans Mono',Consolas,monospace">}</text>
</svg>